<svg width="40.000000" height="40.000000" viewBox="0 0 40 40" fill="none" xmlns="http://www.w3.org/2000/svg" xmlns:xlink="http://www.w3.org/1999/xlink">
	<desc>
			Created with Pixso.
	</desc>
	<defs/>
	<rect id="back" rx="20.000000" width="40.000000" height="40.000000" fill="#FF3E79" fill-opacity="1.000000"/>
	<path id="Path" d="M18.2581 23.4583L18.6667 23.0496L16.95 21.3323L16.5413 21.7412L16.3369 21.5366C16.0098 21.1687 15.6829 20.9644 15.3557 21.0051C15.1106 21.0051 14.906 21.1687 14.7427 21.4141C14.4973 21.8228 14.6199 22.2727 14.6609 22.5588C14.6609 22.6406 14.7017 22.6814 14.7017 22.7632C14.7017 22.886 14.7017 23.0496 14.4155 23.0903C14.0068 23.2129 13.4753 23.3357 12.9441 23.6218C12.2083 24.0308 11.7175 24.3987 11.4314 24.7666C9.91895 26.7292 10.0007 28.4055 10.0007 28.4873C10.0007 28.6099 10.0417 28.6917 10.1233 28.7327L11.2271 29.8774C11.3088 29.9592 11.3906 30 11.4724 30C11.4724 30 11.5132 30 11.595 30C12.0039 30 13.4753 29.9182 15.1921 28.5691C15.5601 28.2827 15.928 27.7922 16.3369 27.0562C16.623 26.5657 16.7864 26.0342 16.8682 25.5845C16.95 25.2981 17.0725 25.2981 17.1953 25.2981C17.2361 25.2981 17.3179 25.3391 17.3997 25.3391C17.5632 25.3799 17.7266 25.4209 17.9312 25.4209C18.1355 25.4209 18.3398 25.3799 18.5442 25.2573C18.7896 25.0938 18.9529 24.8894 18.9939 24.644C19.0347 24.3169 18.8713 23.9897 18.5034 23.7036L18.2581 23.4583Z" fill="#FFFFFF" fill-opacity="1.000000" fill-rule="nonzero"/>
	<path id="Path" d="M26.884 14.8784L28.0188 14.3259C28.0608 14.2834 28.145 14.241 28.187 14.1985L29.9102 11.8616C30.0361 11.6917 30.0361 11.4368 29.8682 11.3091L28.6914 10.1194C28.5652 9.99194 28.313 9.94946 28.145 10.0769L25.8333 11.8191C25.7913 11.8616 25.7493 11.9041 25.7073 11.989L25.1609 13.1362L21 17.2153L22.7651 19L26.884 14.8784Z" fill="#FFFFFF" fill-opacity="1.000000" fill-rule="nonzero"/>
	<path id="Path" d="M27.8525 23.0447C26.8635 22.0037 25.4392 21.6287 24.0942 22.0037L17.6453 15.1733C17.7244 14.7986 17.7639 14.4653 17.7639 14.0906C17.7639 13.0493 17.3684 12.0081 16.6167 11.2168C15.5879 10.0923 14.0449 9.71753 12.6206 10.2173C12.5415 10.2588 12.4229 10.3838 12.3833 10.5503C12.3833 10.6753 12.4229 10.8003 12.502 10.9253L14.4407 12.9661C14.8757 13.4241 14.8757 14.2153 14.4407 14.6736C14.0054 15.1316 13.2537 15.1316 12.8186 14.6736L10.8799 12.6328C10.7612 12.5496 10.6426 12.5078 10.4844 12.5496C10.3655 12.5496 10.2468 12.6743 10.2073 12.7993C9.73267 14.2571 10.0886 15.8813 11.1172 16.9641C11.8293 17.7554 12.8582 18.1719 13.8867 18.1719C14.2031 18.1719 14.5593 18.1304 14.8757 18.0471L21.3643 24.8772C21.0081 26.2932 21.4038 27.7927 22.3533 28.8337C23.105 29.6252 24.0544 30 25.0833 30C25.5183 30 25.9141 29.9167 26.3491 29.7917C26.468 29.75 26.5867 29.6252 26.6262 29.5002C26.6658 29.3752 26.6262 29.2087 26.5076 29.1255L24.5688 27.0847C24.3711 26.8765 24.2129 26.5432 24.2129 26.21C24.2129 25.877 24.3315 25.5852 24.5688 25.3354C24.8062 25.0854 25.0833 24.9607 25.3997 24.9607C25.7163 24.9607 25.9932 25.0854 26.2305 25.3354L28.1692 27.3762C28.2878 27.4595 28.4065 27.5012 28.5251 27.5012C28.644 27.4595 28.7627 27.3762 28.8022 27.2512C28.9209 26.8347 29 26.3767 29 25.9185C29 24.8357 28.6042 23.7944 27.8525 23.0447Z" fill="#FFFFFF" fill-opacity="1.000000" fill-rule="nonzero"/>
</svg>
